<mxfile host="app.diagrams.net" modified="2023-10-30T09:26:51.841Z" agent="Mozilla/5.0 (Windows NT 10.0; Win64; x64) AppleWebKit/537.36 (KHTML, like Gecko) Chrome/118.0.0.0 Safari/537.36 Edg/118.0.2088.76" etag="xmGdEjFBurTAVTeqRh5s" version="22.0.8" type="device">
  <diagram name="Page-1" id="RkmhBJ9YXuHi9S4Uj5_b">
    <mxGraphModel dx="872" dy="465" grid="1" gridSize="10" guides="1" tooltips="1" connect="1" arrows="1" fold="1" page="1" pageScale="1" pageWidth="850" pageHeight="1100" math="0" shadow="0">
      <root>
        <mxCell id="0" />
        <mxCell id="1" parent="0" />
        <mxCell id="piGCm9Gw1Fv8Z7XU30e3-2" value="Khách hàng" style="shape=umlActor;verticalLabelPosition=bottom;verticalAlign=top;html=1;" vertex="1" parent="1">
          <mxGeometry x="180" y="190" width="30" height="60" as="geometry" />
        </mxCell>
        <mxCell id="piGCm9Gw1Fv8Z7XU30e3-3" value="QL đặt hàng" style="ellipse;whiteSpace=wrap;html=1;" vertex="1" parent="1">
          <mxGeometry x="285" y="185" width="140" height="70" as="geometry" />
        </mxCell>
        <mxCell id="piGCm9Gw1Fv8Z7XU30e3-4" value="Đăng nhập thành công" style="ellipse;whiteSpace=wrap;html=1;" vertex="1" parent="1">
          <mxGeometry x="490" y="400" width="140" height="40" as="geometry" />
        </mxCell>
        <mxCell id="piGCm9Gw1Fv8Z7XU30e3-5" value="Thêm sp vào giỏ hàng" style="ellipse;whiteSpace=wrap;html=1;" vertex="1" parent="1">
          <mxGeometry x="490" y="200" width="140" height="40" as="geometry" />
        </mxCell>
        <mxCell id="piGCm9Gw1Fv8Z7XU30e3-6" value="&amp;lt;&amp;lt;extend&amp;gt;&amp;gt;" style="html=1;verticalAlign=bottom;labelBackgroundColor=none;endArrow=open;endFill=0;dashed=1;rounded=0;entryX=1;entryY=0.5;entryDx=0;entryDy=0;exitX=0;exitY=0.5;exitDx=0;exitDy=0;" edge="1" parent="1" source="piGCm9Gw1Fv8Z7XU30e3-5" target="piGCm9Gw1Fv8Z7XU30e3-3">
          <mxGeometry width="160" relative="1" as="geometry">
            <mxPoint x="620" y="240" as="sourcePoint" />
            <mxPoint x="500" y="260" as="targetPoint" />
          </mxGeometry>
        </mxCell>
        <mxCell id="piGCm9Gw1Fv8Z7XU30e3-7" value="&amp;lt;&amp;lt;include&amp;gt;&amp;gt;" style="html=1;verticalAlign=bottom;labelBackgroundColor=none;endArrow=open;endFill=0;dashed=1;rounded=0;entryX=0.5;entryY=0;entryDx=0;entryDy=0;exitX=0.5;exitY=1;exitDx=0;exitDy=0;" edge="1" parent="1" source="piGCm9Gw1Fv8Z7XU30e3-12" target="piGCm9Gw1Fv8Z7XU30e3-4">
          <mxGeometry width="160" relative="1" as="geometry">
            <mxPoint x="260" y="410" as="sourcePoint" />
            <mxPoint x="500" y="260" as="targetPoint" />
          </mxGeometry>
        </mxCell>
        <mxCell id="piGCm9Gw1Fv8Z7XU30e3-8" value="" style="endArrow=none;html=1;rounded=0;exitX=0.5;exitY=0.5;exitDx=0;exitDy=0;exitPerimeter=0;entryX=0;entryY=0.5;entryDx=0;entryDy=0;" edge="1" parent="1" source="piGCm9Gw1Fv8Z7XU30e3-2" target="piGCm9Gw1Fv8Z7XU30e3-3">
          <mxGeometry width="50" height="50" relative="1" as="geometry">
            <mxPoint x="400" y="270" as="sourcePoint" />
            <mxPoint x="280" y="220" as="targetPoint" />
          </mxGeometry>
        </mxCell>
        <mxCell id="piGCm9Gw1Fv8Z7XU30e3-9" value="Xóa sp khỏi giỏ hàng" style="ellipse;whiteSpace=wrap;html=1;" vertex="1" parent="1">
          <mxGeometry x="285" y="320" width="140" height="40" as="geometry" />
        </mxCell>
        <mxCell id="piGCm9Gw1Fv8Z7XU30e3-10" value="&amp;lt;&amp;lt;extend&amp;gt;&amp;gt;" style="html=1;verticalAlign=bottom;labelBackgroundColor=none;endArrow=open;endFill=0;dashed=1;rounded=0;entryX=0.5;entryY=1;entryDx=0;entryDy=0;exitX=0.5;exitY=0;exitDx=0;exitDy=0;" edge="1" parent="1" source="piGCm9Gw1Fv8Z7XU30e3-9" target="piGCm9Gw1Fv8Z7XU30e3-3">
          <mxGeometry width="160" relative="1" as="geometry">
            <mxPoint x="500" y="330" as="sourcePoint" />
            <mxPoint x="414" y="255" as="targetPoint" />
          </mxGeometry>
        </mxCell>
        <mxCell id="piGCm9Gw1Fv8Z7XU30e3-11" value="Cập nhật sản phẩm trong giỏ hàng" style="ellipse;whiteSpace=wrap;html=1;" vertex="1" parent="1">
          <mxGeometry x="255" y="80" width="200" height="40" as="geometry" />
        </mxCell>
        <mxCell id="piGCm9Gw1Fv8Z7XU30e3-12" value="Thanh toán" style="ellipse;whiteSpace=wrap;html=1;" vertex="1" parent="1">
          <mxGeometry x="490" y="300" width="140" height="40" as="geometry" />
        </mxCell>
        <mxCell id="piGCm9Gw1Fv8Z7XU30e3-14" value="&amp;lt;&amp;lt;include&amp;gt;&amp;gt;" style="html=1;verticalAlign=bottom;labelBackgroundColor=none;endArrow=open;endFill=0;dashed=1;rounded=0;entryX=0.5;entryY=1;entryDx=0;entryDy=0;exitX=0.5;exitY=0;exitDx=0;exitDy=0;" edge="1" parent="1" source="piGCm9Gw1Fv8Z7XU30e3-12" target="piGCm9Gw1Fv8Z7XU30e3-5">
          <mxGeometry width="160" relative="1" as="geometry">
            <mxPoint x="590" y="370" as="sourcePoint" />
            <mxPoint x="440" y="440" as="targetPoint" />
          </mxGeometry>
        </mxCell>
        <mxCell id="piGCm9Gw1Fv8Z7XU30e3-15" value="&amp;lt;&amp;lt;extend&amp;gt;&amp;gt;" style="html=1;verticalAlign=bottom;labelBackgroundColor=none;endArrow=open;endFill=0;dashed=1;rounded=0;entryX=0.5;entryY=0;entryDx=0;entryDy=0;exitX=0.5;exitY=1;exitDx=0;exitDy=0;" edge="1" parent="1" source="piGCm9Gw1Fv8Z7XU30e3-11" target="piGCm9Gw1Fv8Z7XU30e3-3">
          <mxGeometry width="160" relative="1" as="geometry">
            <mxPoint x="365" y="330" as="sourcePoint" />
            <mxPoint x="365" y="265" as="targetPoint" />
          </mxGeometry>
        </mxCell>
      </root>
    </mxGraphModel>
  </diagram>
</mxfile>
